<svg xmlns="http://www.w3.org/2000/svg" width="720" height="192" viewBox="0 0 720 192" font-family="-apple-system,BlinkMacSystemFont,Segoe UI,Helvetica,Arial,sans-serif">
<text x="0" y="18" font-size="14" font-weight="600" fill="#7d8590">Skills exercised</text>
<text x="190" y="47" text-anchor="end" font-size="12" fill="#7d8590">C++</text>
<rect x="200" y="34" width="460" height="16" rx="3" fill="#57606a26"/>
<rect x="200" y="34" width="460" height="16" rx="3" fill="#0969da"/>
<text x="668" y="47" font-size="12" font-weight="600" fill="#7d8590">1</text>
<text x="190" y="77" text-anchor="end" font-size="12" fill="#7d8590">AddressSanitizer</text>
<rect x="200" y="64" width="460" height="16" rx="3" fill="#57606a26"/>
<rect x="200" y="64" width="460" height="16" rx="3" fill="#8250df"/>
<text x="668" y="77" font-size="12" font-weight="600" fill="#7d8590">1</text>
<text x="190" y="107" text-anchor="end" font-size="12" fill="#7d8590">binary parsing</text>
<rect x="200" y="94" width="460" height="16" rx="3" fill="#57606a26"/>
<rect x="200" y="94" width="460" height="16" rx="3" fill="#1a7f37"/>
<text x="668" y="107" font-size="12" font-weight="600" fill="#7d8590">1</text>
<text x="190" y="137" text-anchor="end" font-size="12" fill="#7d8590">integer overflow</text>
<rect x="200" y="124" width="460" height="16" rx="3" fill="#57606a26"/>
<rect x="200" y="124" width="460" height="16" rx="3" fill="#bc4c00"/>
<text x="668" y="137" font-size="12" font-weight="600" fill="#7d8590">1</text>
<text x="190" y="167" text-anchor="end" font-size="12" fill="#7d8590">CMake</text>
<rect x="200" y="154" width="460" height="16" rx="3" fill="#57606a26"/>
<rect x="200" y="154" width="460" height="16" rx="3" fill="#cf222e"/>
<text x="668" y="167" font-size="12" font-weight="600" fill="#7d8590">1</text>
</svg>